<svg xmlns="http://www.w3.org/2000/svg" width="716" height="487.3999938964844" viewBox="0 0 716 487.3999938964844" preserveAspectRatio="none">
            <!-- https://grabient.com/_gA1gAwgBYgCVgCdgCOgDcgDUgDdg6Bg6Lg5tgDvbrifE?style=linearSwatches&steps=21 -->
            <defs>
              <clipPath id="bounds">
                <rect x="0" y="0" width="716" height="487.3999938964844" />
              </clipPath>
            </defs>
            <g clip-path="url(#bounds)"><path d="M 0.000,676.775 L 0.000,-189.375 L 34.095,-189.375 L 34.095,676.775 Z" fill="#000000" fill-opacity="1.000" /><path d="M 34.095,676.775 L 34.095,-189.375 L 68.190,-189.375 L 68.190,676.775 Z" fill="#000001" fill-opacity="1.000" /><path d="M 68.190,676.775 L 68.190,-189.375 L 102.286,-189.375 L 102.286,676.775 Z" fill="#000002" fill-opacity="1.000" /><path d="M 102.286,676.775 L 102.286,-189.375 L 136.381,-189.375 L 136.381,676.775 Z" fill="#000004" fill-opacity="1.000" /><path d="M 136.381,676.775 L 136.381,-189.375 L 170.476,-189.375 L 170.476,676.775 Z" fill="#000005" fill-opacity="1.000" /><path d="M 170.476,676.775 L 170.476,-189.375 L 204.571,-189.375 L 204.571,676.775 Z" fill="#010107" fill-opacity="1.000" /><path d="M 204.571,676.775 L 204.571,-189.375 L 238.667,-189.375 L 238.667,676.775 Z" fill="#030308" fill-opacity="1.000" /><path d="M 238.667,676.775 L 238.667,-189.375 L 272.762,-189.375 L 272.762,676.775 Z" fill="#05050a" fill-opacity="1.000" /><path d="M 272.762,676.775 L 272.762,-189.375 L 306.857,-189.375 L 306.857,676.775 Z" fill="#07070c" fill-opacity="1.000" /><path d="M 306.857,676.775 L 306.857,-189.375 L 340.952,-189.375 L 340.952,676.775 Z" fill="#09090e" fill-opacity="1.000" /><path d="M 340.952,676.775 L 340.952,-189.375 L 375.048,-189.375 L 375.048,676.775 Z" fill="#0b0b0f" fill-opacity="1.000" /><path d="M 375.048,676.775 L 375.048,-189.375 L 409.143,-189.375 L 409.143,676.775 Z" fill="#0c0d11" fill-opacity="1.000" /><path d="M 409.143,676.775 L 409.143,-189.375 L 443.238,-189.375 L 443.238,676.775 Z" fill="#0e0f13" fill-opacity="1.000" /><path d="M 443.238,676.775 L 443.238,-189.375 L 477.333,-189.375 L 477.333,676.775 Z" fill="#101115" fill-opacity="1.000" /><path d="M 477.333,676.775 L 477.333,-189.375 L 511.429,-189.375 L 511.429,676.775 Z" fill="#121317" fill-opacity="1.000" /><path d="M 511.429,676.775 L 511.429,-189.375 L 545.524,-189.375 L 545.524,676.775 Z" fill="#141418" fill-opacity="1.000" /><path d="M 545.524,676.775 L 545.524,-189.375 L 579.619,-189.375 L 579.619,676.775 Z" fill="#16161a" fill-opacity="1.000" /><path d="M 579.619,676.775 L 579.619,-189.375 L 613.714,-189.375 L 613.714,676.775 Z" fill="#18181c" fill-opacity="1.000" /><path d="M 613.714,676.775 L 613.714,-189.375 L 647.810,-189.375 L 647.810,676.775 Z" fill="#1a1a1e" fill-opacity="1.000" /><path d="M 647.810,676.775 L 647.810,-189.375 L 681.905,-189.375 L 681.905,676.775 Z" fill="#1b1c20" fill-opacity="1.000" /><path d="M 681.905,676.775 L 681.905,-189.375 L 716.000,-189.375 L 716.000,676.775 Z" fill="#1d1e21" fill-opacity="1.000" /></g>
          </svg>